<svg width="406" height="406" viewBox="0 0 406 406" fill="none" xmlns="http://www.w3.org/2000/svg">
<path d="M167.279 80.5948C151.81 75.7635 137.719 87.4566 138.652 103.327C118.004 102.791 98.4997 120.855 100.926 142.164C93.2503 147.066 89.2841 155.258 87.8142 164.01C60.9605 177.43 60.6106 226.14 87.5809 238.93C64.0869 262.526 86.8577 313.103 120.501 305.214C122.087 315.67 120.174 332.288 132.283 336.652C153.934 344.308 158.156 343.024 159.346 319.218C159.51 319.241 159.696 319.265 159.86 319.288C161.446 337.259 185.92 338.403 198.075 329.581C207.571 333.012 216.903 333.852 225.886 329.044C226.562 344.355 246.603 340.27 257.125 339.08C263.355 339.01 266.318 334.645 267.554 328.997C294.011 336.162 323.012 320.431 316.549 290.23C336.52 282.528 350.355 258.022 336.31 238.86C335.563 237.576 335.47 237.483 336.45 236.573C351.475 219.815 342.189 194.818 333.184 177.71C337.29 156.635 318.462 137.216 298.748 133.552C297.301 109.116 273.714 100.807 252.413 102.744C251.829 90.4674 247.677 75.4134 233.351 73.943C228.662 69.6018 226.002 61.6197 218.35 60.4994C211.164 57.9788 204.585 61.8765 197.632 61.9465C184.334 58.1888 168.259 64.8873 167.909 80.2213C167.699 80.338 167.465 80.4547 167.255 80.5714L167.279 80.5948Z" fill="white"/>
<path d="M159.37 319.241C159.206 317.817 160.116 318.004 159.883 319.311C159.72 319.288 159.533 319.265 159.37 319.241Z" fill="#6B6B6B"/>
<path d="M41.6193 146.739C41.526 146.506 41.4327 146.272 41.3394 146.039C41.9226 146.085 41.946 146.155 41.6193 146.739Z" fill="#272727"/>
<path d="M167.932 80.2447C167.979 80.8282 167.699 80.8281 167.279 80.5948C167.489 80.4781 167.722 80.3614 167.932 80.2447Z" fill="#8E8E8E"/>
<path d="M255.842 167.418H252.296C250.243 200.35 247.793 242.898 217.51 264.02C147.844 297.862 95.5834 222.732 131.466 160.626C124.56 158.665 124.607 172.622 121.084 176.8C117.328 184.456 106.012 184.852 98.523 183.289C89.5407 180.371 90.5673 168.398 91.5005 160.789C95.0934 146.085 110.958 137.613 123.697 132.035C128.923 148.793 144.998 157.172 161.959 153.951C171.922 173.813 201.108 176.964 214.384 158.899C230.972 164.477 247.047 156.985 257.942 144.335C278.03 151.944 291.655 167.674 286.942 190.15C284.936 200.466 272.85 202.824 264.265 199.463C252.296 193.791 257.079 178.037 255.796 167.394L255.842 167.418ZM153.444 173.859C153.187 173.883 152.93 173.929 152.674 173.953V174.233C168.865 177.897 147.471 195.542 146.958 178.527L146.678 178.434C139.329 188.89 152.977 202.03 163.126 193.908C173.135 186.673 164.759 170.382 153.444 173.859ZM198.122 185.366C198.332 184.782 198.402 184.222 198.145 183.545C197.445 184.012 197.119 184.502 197.142 185.202C190.656 196.709 207.851 206.721 214.78 198.903C224.276 191.457 215.62 175.68 204.631 179.181C218.233 183.989 200.852 199.183 198.099 185.342L198.122 185.366ZM170.522 259.025C173.251 253.611 172.505 244.578 179.341 242.594C183.89 241.007 209.297 235.709 203.511 229.244C183.237 242.338 161.259 241.334 143.225 225.813C145.418 234.379 157.2 238.697 164.736 242.221C165.832 247.869 166.416 253.564 168.539 259.025H170.545H170.522ZM185.943 259.025C182.14 272.375 211.677 255.851 209.997 249.619C209.507 249.036 208.528 248.896 208.014 249.456C202.158 255.384 194.552 259.725 185.943 259.002V259.025Z" fill="white"/>
<path d="M264.545 304.374C264.615 314.107 265.221 324.283 261.302 333.385C252.646 336.256 242.754 336.699 233.818 334.762C228.125 331.961 231.205 322.369 230.785 317.117C237.481 318.378 241.704 312.893 244.807 307.828C253.999 314.48 257.895 311.049 264.568 304.374H264.545Z" fill="white"/>
<path d="M125.12 304.117C130.859 305.027 136.622 304.374 142.338 305.914C145.278 310.769 149.104 315.46 155.38 314.877C154.027 322.065 155.217 330.211 151.367 336.676C127.616 334.902 125.4 326.033 125.143 304.141L125.12 304.117Z" fill="white"/>
<path d="M139.539 301.316C139.329 300.78 138.979 300.5 139.632 300.406C140.215 300.593 139.795 300.85 139.539 301.316Z" fill="#535353"/>
<path d="M336.333 238.907C347.625 221.752 346.319 198.179 333.86 180.278C336.333 158.455 320.865 137.473 298.771 133.599C297.324 109.162 273.737 100.853 252.436 102.791C251.853 90.514 247.7 75.4601 233.375 73.9897C228.685 69.6485 226.026 61.6664 218.373 60.5461C211.187 58.0255 204.608 61.9231 197.655 61.9932C184.357 58.2355 168.282 64.9339 167.932 80.268C152.067 77.2339 138.255 85.1226 138.652 103.351C118.004 102.814 98.4997 120.879 100.926 142.188C93.2503 147.089 89.2841 155.281 87.8142 164.033C60.9605 177.454 60.6106 226.163 87.5809 238.953C64.0869 262.55 86.8577 313.126 120.501 305.237C121.411 324.773 122.834 337.423 144.928 340.34C159.86 346.408 157.457 325.706 159.86 318.401C160.373 337.049 185.757 338.683 198.099 329.604C207.594 333.035 216.927 333.875 225.909 329.067C226.586 344.378 246.627 340.293 257.149 339.103C263.378 339.033 266.341 334.669 267.578 329.02C294.035 336.186 323.035 320.455 316.572 290.254C336.543 282.575 350.379 258.022 336.333 238.883V238.907ZM154.913 318.331C153.887 324.399 154.843 331.308 151.344 336.652C127.593 334.879 125.377 326.01 125.12 304.117C130.859 305.027 136.622 304.374 142.338 305.914C145.278 310.769 149.104 315.46 155.38 314.877C155.567 316.16 155.03 317.234 154.937 318.354L154.913 318.331ZM139.212 300.593C139.818 300.103 140.145 300.733 139.515 301.316C139.352 300.966 139.235 300.78 139.212 300.593ZM263.051 328.204C262.655 329.977 262.095 331.704 261.278 333.362C252.623 336.232 242.73 336.676 233.795 334.739C228.102 331.938 231.182 322.345 230.762 317.094C237.458 318.354 241.681 312.869 244.784 307.805C253.976 314.457 257.872 311.026 264.545 304.351C264.755 312.379 264.778 320.338 263.075 328.204H263.051ZM286.966 190.15C284.959 200.466 272.874 202.824 264.288 199.463C252.319 193.791 257.102 178.037 255.819 167.394H252.273C250.22 200.326 247.77 242.874 217.487 263.997C147.821 297.839 95.56 222.709 131.443 160.603C124.537 158.642 124.583 172.599 121.061 176.777C117.304 184.432 105.989 184.829 98.4997 183.265C89.5174 180.348 90.5439 168.375 91.4772 160.766C95.0701 146.062 110.935 137.59 123.674 132.012C128.9 148.769 144.975 157.148 161.936 153.927C171.898 173.789 201.085 176.94 214.36 158.875C230.948 164.454 247.023 156.962 257.919 144.312C278.007 151.92 291.632 167.651 286.919 190.127L286.966 190.15Z" fill="#010101"/>
<path d="M198.519 236.059C201.062 235.032 207.478 232.232 203.511 229.221C183.237 242.314 161.259 241.311 143.225 225.79C145.418 234.355 157.2 238.673 164.736 242.197C165.832 247.846 166.416 253.54 168.539 259.002H170.545C173.998 238.743 183.12 243.318 198.542 236.059H198.519Z" fill="#010101"/>
<path d="M204.631 179.181C218.233 183.989 200.852 199.183 198.099 185.342C197.772 185.296 197.445 185.249 197.119 185.179C190.633 196.685 207.828 206.698 214.757 198.879C224.252 191.434 215.597 175.657 204.608 179.157L204.631 179.181Z" fill="#010101"/>
<path d="M150.831 195.145C170.265 203.221 173.881 169.915 153.444 173.836C153.584 173.929 153.63 174.069 153.537 174.233C167.279 178.574 149.174 194.211 146.864 179.834L145.908 179.764C143.108 185.132 145.278 192.648 150.831 195.145Z" fill="#010101"/>
<path d="M207.991 249.479C202.135 255.408 194.529 259.749 185.92 259.025C180.951 275.153 220.006 248.896 207.991 249.479Z" fill="#010101"/>
<path d="M198.122 185.342C197.795 185.296 197.469 185.249 197.142 185.179C197.119 184.479 197.445 183.989 198.145 183.522C198.379 184.175 198.332 184.759 198.122 185.342Z" fill="#535353"/>
<path d="M146.841 179.834C146.514 179.834 146.211 179.788 145.884 179.764C146.141 179.321 146.398 178.877 146.654 178.411L146.934 178.504C146.911 178.947 146.864 179.391 146.841 179.811V179.834Z" fill="#3A3A3A"/>
<path d="M153.444 173.836C153.584 173.929 153.63 174.069 153.537 174.233H152.697V173.953C152.93 173.929 153.187 173.883 153.444 173.859V173.836Z" fill="#A3A3A3"/>
<path d="M27.9709 122.909C22.9314 125.687 18.2653 124.776 13.5991 122.349C1.53711 65.5408 58.1842 12.6768 113.968 22.9929C116.371 27.9642 116.254 32.8655 113.781 37.9301C64.8334 30.2748 19.5251 73.3362 27.9709 122.909Z" fill="#010101"/>
<path d="M58.7441 123.563C26.711 135.863 49.2718 71.399 64.8568 64.4905C76.0089 54.4312 125.33 40.9643 114.015 68.4815C81.3983 61.8765 50.485 90.2806 58.7208 123.563H58.7441Z" fill="#010101"/>
<path d="M114.295 82.0651C116.441 86.663 117.141 91.2609 115.088 96.1855C97.4032 92.3345 84.198 107.365 86.2511 124.496C54.5912 135.886 76.3355 71.2356 114.295 82.0885V82.0651Z" fill="#010101"/>
<path d="M133.916 29.6213V12.5834C330.594 -57.2017 491.786 178.877 355.301 336.793C210.791 497.975 -50.7704 354.134 8.62966 145.992H24.9845C-32.5024 338.356 205.098 475.149 341.699 327.48C471.255 180.254 316.642 -40.3506 133.916 29.6213Z" fill="#010101"/>
<path d="M41.6193 146.739C24.6112 195.192 30.8872 252.07 58.6275 294.595C60.6106 297.792 62.5704 301.176 65.0901 304.024C66.2333 307.035 69.4763 308.995 70.8994 311.983C157.247 418.177 333.93 380.181 367.853 246.795C405.182 110.423 262.795 -10.7327 133.939 46.6591V41.1043C191.986 16.1077 263.495 25.4668 311.906 65.3541C380.895 117.214 400.19 224.039 351.872 296.112C350.822 299.356 347.859 301.527 346.622 304.444C345.712 305.004 345.689 306.311 344.662 306.778C223.716 466.98 -25.1766 338.216 36.5566 146.039L41.3394 146.039C41.4327 146.272 41.526 146.506 41.6193 146.739Z" fill="#010101"/>
</svg>
