<svg width="529" height="696" viewBox="0 0 529 696" fill="none" xmlns="http://www.w3.org/2000/svg">
<path d="M154.098 577.541C153.988 587.241 154.248 596.961 153.878 606.661C153.668 606.841 153.468 607.021 153.258 607.201C147.208 607.201 141.158 607.201 135.108 607.201C134.878 607.021 134.658 606.841 134.428 606.661C134.068 585.671 134.188 564.591 134.378 543.601C140.638 542.721 147.228 543.551 153.918 543.271C158.488 548.881 162.668 555.021 167.568 560.871C172.808 555.491 176.868 549.221 181.488 543.341H200.988C201.668 564.421 201.208 585.711 201.158 606.821C195.138 607.931 188.198 606.871 181.938 607.231C180.258 597.851 182.018 587.381 181.258 577.641C161.428 597.821 174.008 599.921 154.158 576.771C154.138 577.021 154.118 577.281 154.098 577.531V577.541Z" fill="#010101"/>
<path d="M525.908 607.231C519.598 607.391 513.138 607.261 506.538 607.311C499.668 598.071 493.278 588.411 486.698 578.961C485.848 579.111 486.068 579.751 486.068 580.221C486.048 589.141 486.058 597.981 486.058 606.911C479.688 607.711 472.858 607.351 466.418 607.081C466.048 604.501 465.908 548.851 466.268 543.751C472.588 542.701 479.368 543.661 485.938 543.351C492.598 552.411 498.758 562.081 505.608 570.971C506.728 570.601 506.358 569.831 506.358 569.271C506.388 560.631 506.378 552.151 506.378 543.491C512.978 542.821 519.298 543.421 525.888 543.231C526.788 564.281 526.778 586.191 525.898 607.231H525.908Z" fill="#010101"/>
<path d="M179.118 655.851C174.878 660.931 171.198 666.061 167.248 671.491C161.768 666.511 158.708 660.311 153.768 654.721C153.088 664.521 153.738 674.221 153.518 684.031C150.988 684.581 136.898 684.601 134.238 684.081V622.731C139.988 621.131 147.328 622.621 153.468 622.131C157.918 627.921 162.248 633.551 166.668 639.301C182.438 622.281 173.078 620.681 199.288 622.411C199.708 625.291 199.698 681.531 199.288 684.131C196.798 684.541 183.688 684.571 180.638 684.171C179.138 682.541 181.858 649.881 179.128 655.841L179.118 655.851Z" fill="#010101"/>
<path d="M391.328 685.941V693.131C385.928 693.931 381.038 693.281 375.628 693.471C374.828 690.941 375.598 688.431 375.058 685.871C341.248 677.751 341.818 627.781 375.878 620.521C419.088 612.541 433.518 673.331 391.328 685.941ZM375.338 657.301C380.798 657.081 385.868 656.801 391.308 657.421C391.608 659.841 390.638 662.091 391.798 664.261C406.918 652.961 388.208 630.461 374.118 642.501C367.478 647.671 367.228 659.901 375.158 664.471C375.218 661.901 375.278 659.691 375.338 657.301Z" fill="#010101"/>
<path d="M309.498 665.651C314.238 671.901 318.808 677.921 323.348 683.911C319.408 688.621 313.588 691.211 309.008 695.311C308.278 695.901 307.598 695.771 307.088 695.071C302.778 688.891 298.088 683.001 293.538 677.011C289.688 673.571 282.278 676.281 277.238 675.551C276.858 678.491 277.258 681.281 276.948 684.221C270.768 684.781 264.238 684.321 258.198 684.451C256.668 664.381 257.778 642.791 257.738 622.281C270.658 622.561 284.088 620.811 296.788 623.221C314.618 628.501 321.198 651.411 309.498 665.651ZM277.268 656.001C283.578 655.411 291.968 658.361 295.148 651.321C299.068 640.491 284.528 640.311 277.418 641.421C276.988 643.841 276.898 651.121 277.268 656.001Z" fill="#010101"/>
<path d="M65.5984 622.871C65.9684 643.241 65.6184 663.651 65.7384 684.021C63.0884 684.591 55.6184 684.711 46.2084 684.361C39.6784 675.031 33.3284 665.801 26.5884 656.511C25.6984 665.741 26.7584 674.901 26.1484 684.151C23.3484 684.531 10.2484 684.561 7.11836 684.211C6.14836 667.211 6.84836 625.751 7.20836 622.491C9.72836 622.101 21.8184 621.971 26.3984 622.301C32.9384 631.421 39.2684 640.881 46.0184 649.971C46.6784 640.971 46.0684 631.641 46.2984 622.571C48.7684 622.031 59.7384 621.881 65.0384 622.281C65.2284 622.481 65.4184 622.671 65.5984 622.871Z" fill="#010101"/>
<path d="M392.678 576.231C393.668 527.271 465.128 531.371 461.178 579.751C455.248 621.611 393.608 618.221 392.678 576.231ZM441.398 574.821C439.938 555.391 409.598 557.751 412.838 578.011C415.598 595.521 441.988 592.261 441.398 574.821Z" fill="#010101"/>
<path d="M273.658 575.511C273.408 611.071 224.928 623.051 208.468 591.141C189.118 549.561 248.838 519.671 269.708 560.441C273.098 564.721 273.188 570.331 273.658 575.511ZM239.208 560.931C217.968 561.731 221.748 594.261 242.778 589.361C259.168 584.541 255.598 562.321 239.208 560.931Z" fill="#010101"/>
<path d="M313.478 543.811C315.858 543.321 329.388 543.221 333.178 543.651C333.888 556.481 333.258 569.471 333.438 582.361C334.378 602.661 309.668 616.651 292.928 606.741C283.808 602.271 278.348 592.771 278.358 582.591C278.548 569.651 278.138 556.691 278.498 543.761C280.928 543.311 294.998 543.261 297.948 543.671C298.898 555.551 297.968 567.841 298.288 579.861C297.968 583.971 299.228 588.281 303.588 589.471C309.398 591.491 314.458 585.641 313.468 580.031C313.468 567.961 313.468 555.871 313.468 543.801L313.478 543.811Z" fill="#010101"/>
<path d="M71.6484 582.971V589.011C80.3084 589.521 88.8984 589.041 97.5984 589.201C98.4784 595.151 97.8284 601.021 97.8784 606.991C82.7084 607.861 67.3184 607.021 51.8584 607.311C51.1084 586.321 51.6984 565.201 51.6184 544.171C51.7184 543.781 51.9684 543.291 52.4184 543.321C67.4684 543.471 82.5684 542.941 97.5884 543.451C98.2884 549.171 97.7184 554.771 97.8484 560.591C89.0884 561.221 80.4984 560.501 71.7284 560.941C71.4484 562.921 71.4584 564.711 71.7084 566.621C80.1184 567.251 88.5284 566.671 96.9184 566.861C97.5584 569.101 97.6884 576.361 97.2284 582.631C88.6984 583.321 80.2284 582.551 71.6384 583.001L71.6484 582.971Z" fill="#010101"/>
<path d="M126.668 622.871C126.498 637.771 128.008 653.021 125.878 667.771C122.148 680.821 107.668 689.371 94.4284 686.411C64.8084 680.201 74.5384 644.681 73.1384 622.631C75.6284 622.071 85.1084 621.931 91.6484 622.311L92.3984 622.831C92.9484 634.561 92.4684 646.341 92.6284 658.091C91.3084 664.941 99.3984 670.191 104.198 665.931C110.698 661.591 105.928 631.961 107.478 622.561C110.068 622.101 120.448 621.981 126.028 622.311C126.248 622.501 126.458 622.681 126.678 622.871H126.668Z" fill="#010101"/>
<path d="M440.048 622.871C440.448 634.421 440.098 646.001 440.208 657.561C438.938 664.071 445.518 670.371 451.558 666.171C454.588 663.701 455.018 662.791 455.018 658.661C455.018 646.741 455.018 634.751 455.018 622.841C460.688 621.351 467.678 622.801 473.788 622.331C473.978 622.511 474.168 622.691 474.358 622.871C473.348 646.501 482.868 681.671 450.548 686.811C412.438 688.501 421.618 647.891 420.828 622.581C423.418 622.091 433.518 621.961 439.398 622.311C439.618 622.501 439.828 622.681 440.048 622.871Z" fill="#010101"/>
<path d="M502.338 644.831C510.278 645.041 518.248 644.831 526.188 645.041C526.628 647.711 526.678 656.911 526.278 660.521C518.098 660.801 509.958 660.521 501.728 660.621C501.058 662.701 501.528 664.591 501.368 666.511C509.908 667.341 518.198 666.571 526.718 666.841C527.158 669.531 527.228 680.801 526.848 684.081C512.218 684.821 496.908 684.501 482.118 684.231C481.698 663.831 481.718 643.231 482.108 622.831C482.358 622.641 482.618 622.461 482.868 622.271C497.338 622.051 511.878 621.981 526.338 622.301C526.518 622.491 526.698 622.681 526.878 622.871C526.878 628.061 526.878 633.251 526.878 638.441C526.698 638.621 526.518 638.811 526.348 638.991C518.088 639.341 509.948 639.061 501.658 639.141C501.448 640.641 500.668 644.671 502.338 644.821V644.831Z" fill="#010101"/>
<path d="M250.508 622.871C250.508 628.061 250.508 633.251 250.508 638.441C250.318 638.631 250.138 638.811 249.948 639.001C241.888 639.321 233.708 639.071 225.658 639.141C224.698 639.641 224.758 645.461 225.938 644.821C233.888 645.041 241.878 644.821 249.828 645.031C250.298 647.611 250.358 656.801 249.948 660.461C241.698 660.821 233.658 660.521 225.298 660.631C224.928 662.721 224.958 664.591 225.258 666.601C233.728 667.161 241.868 666.651 250.408 666.811C251.068 672.511 250.698 678.371 250.588 684.111C247.878 684.511 210.868 684.621 205.888 684.251C205.148 663.951 205.558 643.261 205.758 622.851C205.998 622.651 206.238 622.451 206.478 622.251C220.948 622.021 235.478 621.981 249.948 622.271C250.138 622.471 250.328 622.661 250.508 622.861V622.871Z" fill="#010101"/>
<path d="M354.408 563.201C349.178 563.101 343.888 563.151 338.678 562.911C338.228 560.351 338.128 547.731 338.498 543.541C355.878 542.841 373.558 543.271 390.988 543.371C392.148 549.321 391.398 556.491 391.358 562.811C385.838 563.411 380.658 562.841 375.048 563.101C374.828 577.591 375.048 592.151 374.958 606.591C369.348 608.341 361.778 606.751 355.588 607.311C354.098 594.311 355.538 580.651 355.048 567.411C354.718 566.241 355.648 563.501 354.408 563.211V563.201Z" fill="#010101"/>
<path d="M45.7684 587.311C46.2284 590.301 46.2384 603.991 45.8484 606.951C32.9784 607.521 19.0784 607.571 6.17836 607.001C5.81836 604.451 5.75836 546.731 6.11836 543.611C8.37836 543.141 20.3584 543.031 25.1384 543.441C26.7884 557.551 25.0184 572.631 25.7984 587.101C32.6384 587.641 38.8784 587.191 45.7584 587.321L45.7684 587.311Z" fill="#010101"/>
<path d="M325.408 622.251H344.378C345.488 642.361 344.768 663.671 344.668 684.101C342.348 684.551 331.328 684.681 325.878 684.321C324.548 663.941 325.858 642.901 325.408 622.261V622.251Z" fill="#010101"/>
<path d="M217.957 105.011C197.802 98.7165 179.441 113.952 180.657 134.631C153.754 133.932 128.341 157.469 131.502 185.234C121.501 191.62 116.333 202.294 114.418 213.698C79.4289 231.184 78.9729 294.65 114.114 311.315C83.5023 342.06 113.172 407.959 157.007 397.681C159.074 411.304 156.581 432.957 172.358 438.643C200.569 448.618 206.071 446.945 207.621 415.927C207.834 415.957 208.077 415.988 208.29 416.018C210.357 439.434 242.246 440.924 258.083 429.429C270.456 433.899 282.615 434.994 294.319 428.729C295.201 448.679 321.313 443.357 335.023 441.806C343.14 441.715 347 436.028 348.611 428.669C383.084 438.005 420.87 417.508 412.449 378.157C438.471 368.122 456.497 336.191 438.197 311.224C437.224 309.551 437.103 309.43 438.38 308.244C457.956 286.409 445.858 253.84 434.124 231.549C439.474 204.088 414.942 178.787 389.255 174.012C387.37 142.173 356.637 131.347 328.883 133.871C328.123 117.875 322.712 98.2603 304.047 96.3444C297.936 90.6881 294.471 80.2878 284.5 78.8281C275.137 75.5438 266.565 80.6223 257.506 80.7135C240.178 75.8175 219.234 84.5452 218.778 104.525C218.504 104.677 218.2 104.829 217.926 104.981L217.957 105.011Z" fill="white"/>
<path d="M207.652 415.957C207.439 414.102 208.624 414.345 208.32 416.048C208.108 416.018 207.864 415.988 207.652 415.957Z" fill="#6B6B6B"/>
<path d="M54.2282 191.194C54.1066 190.89 53.985 190.586 53.8634 190.282C54.6233 190.343 54.6537 190.434 54.2282 191.194Z" fill="#272727"/>
<path d="M218.808 104.555C218.869 105.316 218.504 105.315 217.957 105.011C218.23 104.859 218.534 104.707 218.808 104.555Z" fill="#8E8E8E"/>
<path d="M333.351 218.138H328.731C326.055 261.047 322.864 316.485 283.406 344.006C192.635 388.101 124.541 290.21 171.294 209.288C162.296 206.734 162.357 224.919 157.767 230.363C152.873 240.337 138.129 240.854 128.371 238.817C116.668 235.016 118.005 219.415 119.221 209.501C123.903 190.343 144.574 179.304 161.172 172.036C167.981 193.87 188.926 204.788 211.026 200.591C224.006 226.47 262.035 230.576 279.332 207.038C300.946 214.306 321.891 204.544 336.087 188.062C362.261 197.976 380.014 218.472 373.873 247.758C371.259 261.199 355.512 264.27 344.325 259.891C328.731 252.502 334.962 231.975 333.29 218.107L333.351 218.138ZM199.93 226.531C199.596 226.562 199.261 226.622 198.927 226.653V227.018C220.024 231.792 192.148 254.782 191.479 232.613L191.115 232.492C181.539 246.115 199.322 263.236 212.546 252.654C225.587 243.226 214.674 222 199.93 226.531ZM258.144 241.523C258.418 240.763 258.509 240.033 258.175 239.151C257.263 239.76 256.837 240.398 256.867 241.311C248.417 256.303 270.821 269.349 279.849 259.161C292.221 249.461 280.943 228.903 266.626 233.465C284.348 239.729 261.701 259.526 258.114 241.493L258.144 241.523ZM222.182 337.498C225.739 330.443 224.766 318.674 233.673 316.09C239.601 314.022 272.705 307.119 265.166 298.695C238.75 315.755 210.114 314.447 186.616 294.225C189.473 305.385 204.825 311.011 214.643 315.603C216.072 322.962 216.832 330.382 219.598 337.498H222.213H222.182ZM242.276 337.498C237.321 354.893 275.806 333.363 273.617 325.243C272.979 324.483 271.702 324.3 271.033 325.03C263.403 332.754 253.493 338.411 242.276 337.468V337.498Z" fill="white"/>
<path d="M344.69 396.586C344.781 409.267 345.572 422.526 340.465 434.386C329.187 438.126 316.297 438.704 304.655 436.18C297.237 432.531 301.25 420.032 300.703 413.19C309.427 414.832 314.929 407.686 318.972 401.086C330.95 409.753 336.026 405.283 344.72 396.586H344.69Z" fill="white"/>
<path d="M163.026 396.251C170.504 397.437 178.013 396.586 185.46 398.593C189.291 404.918 194.276 411.031 202.453 410.27C200.69 419.637 202.241 430.25 197.225 438.674C166.279 436.362 163.391 424.807 163.056 396.282L163.026 396.251Z" fill="white"/>
<path d="M181.812 392.602C181.539 391.903 181.083 391.538 181.934 391.416C182.694 391.659 182.147 391.994 181.812 392.602Z" fill="#535353"/>
<path d="M438.228 311.285C452.941 288.933 451.238 258.219 435.005 234.894C438.228 206.46 418.073 179.121 389.285 174.073C387.4 142.234 356.667 131.408 328.913 133.932C328.153 117.936 322.742 98.3211 304.077 96.4053C297.967 90.7489 294.501 80.3486 284.53 78.8889C275.168 75.6046 266.595 80.6831 257.536 80.7743C240.209 75.8783 219.264 84.6061 218.808 104.586C198.137 100.632 180.141 110.911 180.657 134.661C153.754 133.962 128.341 157.5 131.502 185.264C121.501 191.65 116.333 202.324 114.418 213.728C79.4289 231.214 78.9729 294.681 114.114 311.346C83.5023 342.09 113.172 407.99 157.007 397.711C158.193 423.164 160.047 439.647 188.835 443.448C208.29 451.355 205.159 424.381 208.29 414.862C208.959 439.16 242.033 441.289 258.114 429.459C270.486 433.93 282.646 435.024 294.349 428.76C295.231 448.709 321.344 443.387 335.053 441.836C343.17 441.745 347.031 436.058 348.642 428.699C383.114 438.035 420.9 417.538 412.48 378.187C438.501 368.182 456.528 336.191 438.228 311.254V311.285ZM201.845 414.771C200.508 422.678 201.754 431.679 197.194 438.643C166.248 436.332 163.36 424.776 163.026 396.251C170.504 397.437 178.013 396.586 185.46 398.593C189.291 404.918 194.276 411.031 202.453 410.27C202.697 411.943 201.997 413.342 201.876 414.801L201.845 414.771ZM181.387 391.659C182.177 391.021 182.603 391.842 181.782 392.602C181.569 392.146 181.417 391.902 181.387 391.659ZM342.744 427.635C342.228 429.946 341.498 432.196 340.434 434.355C329.156 438.096 316.267 438.674 304.624 436.15C297.207 432.5 301.22 420.002 300.672 413.159C309.397 414.801 314.899 407.655 318.942 401.056C330.919 409.723 335.996 405.253 344.69 396.555C344.964 407.016 344.994 417.386 342.775 427.635H342.744ZM373.903 247.758C371.289 261.199 355.542 264.27 344.356 259.891C328.761 252.502 334.993 231.975 333.321 218.107H328.7C326.025 261.016 322.833 316.454 283.375 343.976C192.604 388.071 124.51 290.18 171.264 209.258C162.266 206.704 162.327 224.889 157.737 230.332C152.842 240.307 138.099 240.824 128.341 238.786C116.637 234.985 117.975 219.385 119.191 209.471C123.872 190.312 144.543 179.273 161.141 172.005C167.951 193.84 188.895 204.757 210.995 200.561C223.976 226.44 262.005 230.545 279.302 207.008C300.916 214.276 321.86 204.514 336.057 188.032C362.23 197.945 379.983 218.442 373.843 247.727L373.903 247.758Z" fill="#010101"/>
<path d="M258.661 307.575C261.974 306.237 270.334 302.587 265.166 298.664C238.75 315.725 210.114 314.417 186.616 294.194C189.473 305.355 204.825 310.981 214.643 315.573C216.072 322.932 216.832 330.352 219.598 337.468H222.213C226.712 311.072 238.598 317.032 258.691 307.575H258.661Z" fill="#010101"/>
<path d="M266.626 233.465C284.348 239.729 261.701 259.526 258.114 241.493C257.688 241.432 257.263 241.371 256.837 241.28C248.386 256.272 270.79 269.318 279.819 259.131C292.191 249.43 280.913 228.873 266.595 233.434L266.626 233.465Z" fill="#010101"/>
<path d="M196.526 254.265C221.848 264.787 226.56 221.392 199.93 226.501C200.113 226.622 200.173 226.805 200.052 227.018C217.957 232.674 194.367 253.049 191.358 234.316L190.111 234.225C186.464 241.219 189.291 251.011 196.526 254.265Z" fill="#010101"/>
<path d="M271.003 325.061C263.373 332.785 253.463 338.441 242.246 337.498C235.771 358.512 286.658 324.3 271.003 325.061Z" fill="#010101"/>
<path d="M258.144 241.493C257.719 241.432 257.293 241.371 256.867 241.28C256.837 240.368 257.263 239.729 258.175 239.121C258.479 239.972 258.418 240.733 258.144 241.493Z" fill="#535353"/>
<path d="M191.327 234.316C190.902 234.316 190.507 234.255 190.081 234.225C190.415 233.647 190.75 233.069 191.084 232.461L191.449 232.583C191.419 233.161 191.358 233.738 191.327 234.286V234.316Z" fill="#3A3A3A"/>
<path d="M199.93 226.501C200.113 226.622 200.173 226.805 200.052 227.018H198.957V226.653C199.261 226.622 199.596 226.562 199.93 226.531V226.501Z" fill="#A3A3A3"/>
<path d="M36.4448 160.145C29.8786 163.764 23.7988 162.578 17.719 159.415C2.00279 85.3967 75.8114 16.5173 148.495 29.9587C151.626 36.4361 151.474 42.8222 148.252 49.4213C84.4751 39.4467 25.4404 95.5538 36.4448 160.145Z" fill="#010101"/>
<path d="M76.541 160.997C34.8032 177.023 64.199 93.0297 84.5055 84.0283C99.0362 70.9214 163.3 53.3746 148.556 89.2284C106.058 80.6223 65.7798 117.632 76.5106 160.997H76.541Z" fill="#010101"/>
<path d="M148.921 106.927C151.718 112.918 152.63 118.909 149.954 125.325C126.912 120.308 109.706 139.892 112.381 162.213C71.13 177.053 99.4618 92.8168 148.921 106.958V106.927Z" fill="#010101"/>
<path d="M174.486 38.5952V16.3957C430.749 -74.5313 640.776 233.069 462.942 438.826C274.651 648.84 -66.1516 461.421 11.2441 190.221H32.5537C-42.3492 440.863 267.234 619.098 445.219 426.692C614.025 234.864 412.571 -52.575 174.486 38.5952Z" fill="#010101"/>
<path d="M54.2282 191.194C32.0673 254.326 40.2447 328.436 76.389 383.844C78.9729 388.01 81.5264 392.42 84.8095 396.13C86.299 400.053 90.5245 402.607 92.3788 406.5C204.885 544.867 435.096 495.359 479.296 321.563C527.935 143.876 342.41 -13.9843 174.517 60.7948V53.5571C250.149 20.9876 343.322 33.1822 406.4 85.1534C496.289 152.725 521.429 291.913 458.473 385.82C457.105 390.048 453.245 392.876 451.633 396.677C450.448 397.407 450.417 399.11 449.08 399.718C291.492 608.455 -32.804 440.681 47.6316 190.282L53.8634 190.282C53.985 190.586 54.1066 190.89 54.2282 191.194Z" fill="#010101"/>
</svg>
