<svg width="720" height="174" viewBox="0 0 720 174" fill="none" xmlns="http://www.w3.org/2000/svg">
<path d="M346.97 48.3603C346.86 58.0603 347.12 67.7803 346.75 77.4803C346.54 77.6603 346.34 77.8403 346.13 78.0203C340.08 78.0203 334.03 78.0203 327.98 78.0203C327.75 77.8403 327.53 77.6603 327.3 77.4803C326.94 56.4903 327.06 35.4103 327.25 14.4203C333.51 13.5403 340.1 14.3703 346.79 14.0903C351.36 19.7003 355.54 25.8403 360.44 31.6903C365.68 26.3103 369.74 20.0403 374.36 14.1603H393.86C394.54 35.2403 394.08 56.5303 394.03 77.6403C388.01 78.7503 381.07 77.6903 374.81 78.0503C373.13 68.6703 374.89 58.2003 374.13 48.4603C354.3 68.6403 366.88 70.7403 347.03 47.5903C347.01 47.8403 346.99 48.1003 346.97 48.3503V48.3603Z" fill="#010101"/>
<path d="M718.78 78.0503C712.47 78.2103 706.01 78.0803 699.41 78.1303C692.54 68.8903 686.15 59.2303 679.57 49.7803C678.72 49.9303 678.94 50.5703 678.94 51.0403C678.92 59.9603 678.93 68.8003 678.93 77.7303C672.56 78.5303 665.73 78.1703 659.29 77.9003C658.92 75.3203 658.78 19.6703 659.14 14.5703C665.46 13.5203 672.24 14.4803 678.81 14.1703C685.47 23.2303 691.63 32.9003 698.48 41.7903C699.6 41.4203 699.23 40.6503 699.23 40.0903C699.26 31.4503 699.25 22.9703 699.25 14.3103C705.85 13.6403 712.17 14.2403 718.76 14.0503C719.66 35.1003 719.65 57.0103 718.77 78.0503H718.78Z" fill="#010101"/>
<path d="M371.99 126.67C367.75 131.75 364.07 136.88 360.12 142.31C354.64 137.33 351.58 131.13 346.64 125.54C345.96 135.34 346.61 145.04 346.39 154.85C343.86 155.4 329.77 155.42 327.11 154.9V93.5503C332.86 91.9503 340.2 93.4403 346.34 92.9503C350.79 98.7403 355.12 104.37 359.54 110.12C375.31 93.1003 365.95 91.5003 392.16 93.2303C392.58 96.1103 392.57 152.35 392.16 154.95C389.67 155.36 376.56 155.39 373.51 154.99C372.01 153.36 374.73 120.7 372 126.66L371.99 126.67Z" fill="#010101"/>
<path d="M584.19 156.76V163.95C578.79 164.75 573.9 164.1 568.49 164.29C567.69 161.76 568.46 159.25 567.92 156.69C534.11 148.57 534.68 98.6003 568.74 91.3403C611.95 83.3603 626.38 144.15 584.19 156.76ZM568.2 128.12C573.66 127.9 578.73 127.62 584.17 128.24C584.47 130.66 583.5 132.91 584.66 135.08C599.78 123.78 581.07 101.28 566.98 113.32C560.34 118.49 560.09 130.72 568.02 135.29C568.08 132.72 568.14 130.51 568.2 128.12Z" fill="#010101"/>
<path d="M502.37 136.47C507.11 142.72 511.68 148.74 516.22 154.73C512.28 159.44 506.46 162.03 501.88 166.13C501.15 166.72 500.47 166.59 499.96 165.89C495.65 159.71 490.96 153.82 486.41 147.83C482.56 144.39 475.15 147.1 470.11 146.37C469.73 149.31 470.13 152.1 469.82 155.04C463.64 155.6 457.11 155.14 451.07 155.27C449.54 135.2 450.65 113.61 450.61 93.1003C463.53 93.3803 476.96 91.6303 489.66 94.0403C507.49 99.3203 514.07 122.23 502.37 136.47ZM470.14 126.82C476.45 126.23 484.84 129.18 488.02 122.14C491.94 111.31 477.4 111.13 470.29 112.24C469.86 114.66 469.77 121.94 470.14 126.82Z" fill="#010101"/>
<path d="M258.46 93.6903C258.83 114.06 258.48 134.47 258.6 154.84C255.95 155.41 248.48 155.53 239.07 155.18C232.54 145.85 226.19 136.62 219.45 127.33C218.56 136.56 219.62 145.72 219.01 154.97C216.21 155.35 203.11 155.38 199.98 155.03C199.01 138.03 199.71 96.5703 200.07 93.3103C202.59 92.9203 214.68 92.7903 219.26 93.1203C225.8 102.24 232.13 111.7 238.88 120.79C239.54 111.79 238.93 102.46 239.16 93.3903C241.63 92.8503 252.6 92.7003 257.9 93.1003C258.09 93.3003 258.28 93.4903 258.46 93.6903Z" fill="#010101"/>
<path d="M585.55 47.0503C586.54 -1.90969 658 2.19031 654.05 50.5703C648.12 92.4303 586.48 89.0403 585.55 47.0503ZM634.27 45.6403C632.81 26.2103 602.47 28.5703 605.71 48.8303C608.47 66.3403 634.86 63.0803 634.27 45.6403Z" fill="#010101"/>
<path d="M466.52 46.3303C466.27 81.8903 417.79 93.8703 401.33 61.9603C381.98 20.3803 441.7 -9.50969 462.57 31.2603C465.96 35.5403 466.05 41.1503 466.52 46.3303ZM432.07 31.7503C410.83 32.5503 414.61 65.0803 435.64 60.1803C452.03 55.3603 448.46 33.1403 432.07 31.7503Z" fill="#010101"/>
<path d="M506.34 14.6303C508.72 14.1403 522.25 14.0403 526.04 14.4703C526.75 27.3003 526.12 40.2903 526.3 53.1803C527.24 73.4803 502.53 87.4703 485.79 77.5603C476.67 73.0903 471.21 63.5903 471.22 53.4103C471.41 40.4703 471 27.5103 471.36 14.5803C473.79 14.1303 487.86 14.0803 490.81 14.4903C491.76 26.3703 490.83 38.6603 491.15 50.6803C490.83 54.7903 492.09 59.1003 496.45 60.2903C502.26 62.3103 507.32 56.4603 506.33 50.8503C506.33 38.7803 506.33 26.6903 506.33 14.6203L506.34 14.6303Z" fill="#010101"/>
<path d="M264.52 53.7903V59.8303C273.18 60.3403 281.77 59.8603 290.47 60.0203C291.35 65.9703 290.7 71.8403 290.75 77.8103C275.58 78.6803 260.19 77.8403 244.73 78.1303C243.98 57.1403 244.57 36.0203 244.49 14.9903C244.59 14.6003 244.84 14.1103 245.29 14.1403C260.34 14.2903 275.44 13.7603 290.46 14.2703C291.16 19.9903 290.59 25.5903 290.72 31.4103C281.96 32.0403 273.37 31.3203 264.6 31.7603C264.32 33.7403 264.33 35.5303 264.58 37.4403C272.99 38.0703 281.4 37.4903 289.79 37.6803C290.43 39.9203 290.56 47.1803 290.1 53.4503C281.57 54.1403 273.1 53.3703 264.51 53.8203L264.52 53.7903Z" fill="#010101"/>
<path d="M319.53 93.6903C319.36 108.59 320.87 123.84 318.74 138.59C315.01 151.64 300.53 160.19 287.29 157.23C257.67 151.02 267.4 115.5 266 93.4503C268.49 92.8903 277.97 92.7503 284.51 93.1303L285.26 93.6503C285.81 105.38 285.33 117.16 285.49 128.91C284.17 135.76 292.26 141.01 297.06 136.75C303.56 132.41 298.79 102.78 300.34 93.3803C302.93 92.9203 313.31 92.8003 318.89 93.1303C319.11 93.3203 319.32 93.5003 319.54 93.6903H319.53Z" fill="#010101"/>
<path d="M632.92 93.6903C633.32 105.24 632.97 116.82 633.08 128.38C631.81 134.89 638.39 141.19 644.43 136.99C647.46 134.52 647.89 133.61 647.89 129.48C647.89 117.56 647.89 105.57 647.89 93.6603C653.56 92.1703 660.55 93.6203 666.66 93.1503C666.85 93.3303 667.04 93.5103 667.23 93.6903C666.22 117.32 675.74 152.49 643.42 157.63C605.31 159.32 614.49 118.71 613.7 93.4003C616.29 92.9103 626.39 92.7803 632.27 93.1303C632.49 93.3203 632.7 93.5003 632.92 93.6903Z" fill="#010101"/>
<path d="M695.21 115.65C703.15 115.86 711.12 115.65 719.06 115.86C719.5 118.53 719.55 127.73 719.15 131.34C710.97 131.62 702.83 131.34 694.6 131.44C693.93 133.52 694.4 135.41 694.24 137.33C702.78 138.16 711.07 137.39 719.59 137.66C720.03 140.35 720.1 151.62 719.72 154.9C705.09 155.64 689.78 155.32 674.99 155.05C674.57 134.65 674.59 114.05 674.98 93.6503C675.23 93.4603 675.49 93.2803 675.74 93.0903C690.21 92.8703 704.75 92.8003 719.21 93.1203C719.39 93.3103 719.57 93.5003 719.75 93.6903C719.75 98.8803 719.75 104.07 719.75 109.26C719.57 109.44 719.39 109.63 719.22 109.81C710.96 110.16 702.82 109.88 694.53 109.96C694.32 111.46 693.54 115.49 695.21 115.64V115.65Z" fill="#010101"/>
<path d="M443.38 93.6903C443.38 98.8803 443.38 104.07 443.38 109.26C443.19 109.45 443.01 109.63 442.82 109.82C434.76 110.14 426.58 109.89 418.53 109.96C417.57 110.46 417.63 116.28 418.81 115.64C426.76 115.86 434.75 115.64 442.7 115.85C443.17 118.43 443.23 127.62 442.82 131.28C434.57 131.64 426.53 131.34 418.17 131.45C417.8 133.54 417.83 135.41 418.13 137.42C426.6 137.98 434.74 137.47 443.28 137.63C443.94 143.33 443.57 149.19 443.46 154.93C440.75 155.33 403.74 155.44 398.76 155.07C398.02 134.77 398.43 114.08 398.63 93.6703C398.87 93.4703 399.11 93.2703 399.35 93.0703C413.82 92.8403 428.35 92.8003 442.82 93.0903C443.01 93.2903 443.2 93.4803 443.38 93.6803V93.6903Z" fill="#010101"/>
<path d="M547.27 34.0203C542.04 33.9203 536.75 33.9703 531.54 33.7303C531.09 31.1703 530.99 18.5503 531.36 14.3603C548.74 13.6603 566.42 14.0903 583.85 14.1903C585.01 20.1403 584.26 27.3103 584.22 33.6303C578.7 34.2303 573.52 33.6603 567.91 33.9203C567.69 48.4103 567.91 62.9703 567.82 77.4103C562.21 79.1603 554.64 77.5703 548.45 78.1303C546.96 65.1303 548.4 51.4703 547.91 38.2303C547.58 37.0603 548.51 34.3203 547.27 34.0303V34.0203Z" fill="#010101"/>
<path d="M238.64 58.1303C239.1 61.1203 239.11 74.8103 238.72 77.7703C225.85 78.3403 211.95 78.3903 199.05 77.8203C198.69 75.2703 198.63 17.5503 198.99 14.4303C201.25 13.9603 213.23 13.8503 218.01 14.2603C219.66 28.3703 217.89 43.4503 218.67 57.9203C225.51 58.4603 231.75 58.0103 238.63 58.1403L238.64 58.1303Z" fill="#010101"/>
<path d="M518.27 93.0703H537.24C538.35 113.18 537.63 134.49 537.53 154.92C535.21 155.37 524.19 155.5 518.74 155.14C517.41 134.76 518.72 113.72 518.27 93.0803V93.0703Z" fill="#010101"/>
<path d="M71.6988 34.5315C65.0688 32.4615 59.0288 37.4715 59.4288 44.2715C50.5788 44.0415 42.2188 51.7815 43.2588 60.9115C39.9688 63.0115 38.2688 66.5215 37.6388 70.2715C26.1288 76.0215 25.9788 96.8915 37.5388 102.371C27.4688 112.481 37.2288 134.151 51.6488 130.771C52.3288 135.251 51.5088 142.371 56.6988 144.241C65.9788 147.521 67.7888 146.971 68.2988 136.771C68.3688 136.781 68.4488 136.791 68.5188 136.801C69.1988 144.501 79.6888 144.991 84.8988 141.211C88.9688 142.681 92.9688 143.041 96.8188 140.981C97.1088 147.541 105.699 145.791 110.209 145.281C112.879 145.251 114.149 143.381 114.679 140.961C126.019 144.031 138.449 137.291 135.679 124.351C144.239 121.051 150.169 110.551 144.149 102.341C143.829 101.791 143.789 101.751 144.209 101.361C150.649 94.1815 146.669 83.4715 142.809 76.1415C144.569 67.1115 136.499 58.7915 128.049 57.2215C127.429 46.7515 117.319 43.1915 108.189 44.0215C107.939 38.7615 106.159 32.3115 100.019 31.6815C98.0088 29.8215 96.8688 26.4015 93.5888 25.9215C90.5088 24.8415 87.6888 26.5115 84.7088 26.5415C79.0088 24.9315 72.1188 27.8015 71.9688 34.3715C71.8788 34.4215 71.7788 34.4715 71.6888 34.5215L71.6988 34.5315Z" fill="white"/>
<path d="M68.3088 136.781C68.2388 136.171 68.6288 136.251 68.5288 136.811C68.4588 136.801 68.3788 136.791 68.3088 136.781Z" fill="#6B6B6B"/>
<path d="M17.8388 62.8715C17.7988 62.7715 17.7588 62.6715 17.7188 62.5715C17.9688 62.5915 17.9788 62.6215 17.8388 62.8715Z" fill="#272727"/>
<path d="M71.9788 34.3815C71.9988 34.6315 71.8788 34.6315 71.6988 34.5315C71.7888 34.4815 71.8888 34.4315 71.9788 34.3815Z" fill="#8E8E8E"/>
<path d="M109.659 71.7315H108.139C107.259 85.8415 106.209 104.071 93.2288 113.121C63.3688 127.621 40.9688 95.4315 56.3488 68.8215C53.3888 67.9815 53.4088 73.9615 51.8988 75.7515C50.2888 79.0315 45.4388 79.2015 42.2288 78.5315C38.3788 77.2815 38.8188 72.1515 39.2188 68.8915C40.7588 62.5915 47.5588 58.9615 53.0188 56.5715C55.2588 63.7515 62.1488 67.3415 69.4188 65.9615C73.6888 74.4715 86.1988 75.8215 91.8888 68.0815C98.9988 70.4715 105.889 67.2615 110.559 61.8415C119.169 65.1015 125.009 71.8415 122.989 81.4715C122.129 85.8915 116.949 86.9015 113.269 85.4615C108.139 83.0315 110.189 76.2815 109.639 71.7215L109.659 71.7315ZM65.7688 74.4915C65.6588 74.5015 65.5488 74.5215 65.4388 74.5315V74.6515C72.3788 76.2215 63.2088 83.7815 62.9888 76.4915L62.8688 76.4515C59.7188 80.9315 65.5688 86.5615 69.9188 83.0815C74.2088 79.9815 70.6188 73.0015 65.7688 74.4915ZM84.9188 79.4215C85.0088 79.1715 85.0388 78.9315 84.9288 78.6415C84.6288 78.8415 84.4888 79.0515 84.4988 79.3515C81.7188 84.2815 89.0888 88.5715 92.0588 85.2215C96.1288 82.0315 92.4188 75.2715 87.7088 76.7715C93.5388 78.8315 86.0888 85.3415 84.9088 79.4115L84.9188 79.4215ZM73.0888 110.981C74.2588 108.661 73.9388 104.791 76.8688 103.941C78.8188 103.261 89.7088 100.991 87.2288 98.2215C78.5388 103.831 69.1188 103.401 61.3888 96.7515C62.3288 100.421 67.3788 102.271 70.6088 103.781C71.0788 106.201 71.3288 108.641 72.2388 110.981H73.0988H73.0888ZM79.6988 110.981C78.0688 116.701 90.7288 109.621 90.0088 106.951C89.7988 106.701 89.3788 106.641 89.1588 106.881C86.6488 109.421 83.3888 111.281 79.6988 110.971V110.981Z" fill="white"/>
<path d="M113.389 130.411C113.419 134.581 113.679 138.941 111.999 142.841C108.289 144.071 104.049 144.261 100.219 143.431C97.7788 142.231 99.0988 138.121 98.9188 135.871C101.789 136.411 103.599 134.061 104.929 131.891C108.869 134.741 110.539 133.271 113.399 130.411H113.389Z" fill="white"/>
<path d="M53.6288 130.301C56.0888 130.691 58.5588 130.411 61.0088 131.071C62.2688 133.151 63.9088 135.161 66.5988 134.911C66.0188 137.991 66.5288 141.481 64.8788 144.251C54.6988 143.491 53.7488 139.691 53.6388 130.311L53.6288 130.301Z" fill="white"/>
<path d="M59.8088 129.101C59.7188 128.871 59.5688 128.751 59.8488 128.711C60.0988 128.791 59.9188 128.901 59.8088 129.101Z" fill="#535353"/>
<path d="M144.159 102.361C148.999 95.0115 148.439 84.9115 143.099 77.2415C144.159 67.8915 137.529 58.9015 128.059 57.2415C127.439 46.7715 117.329 43.2115 108.199 44.0415C107.949 38.7815 106.169 32.3315 100.029 31.7015C98.0188 29.8415 96.8788 26.4215 93.5988 25.9415C90.5188 24.8615 87.6988 26.5315 84.7188 26.5615C79.0188 24.9515 72.1288 27.8215 71.9788 34.3915C65.1788 33.0915 59.2588 36.4715 59.4288 44.2815C50.5788 44.0515 42.2188 51.7915 43.2588 60.9215C39.9688 63.0215 38.2688 66.5315 37.6388 70.2815C26.1288 76.0315 25.9788 96.9015 37.5388 102.381C27.4688 112.491 37.2288 134.161 51.6488 130.781C52.0388 139.151 52.6488 144.571 62.1188 145.821C68.5188 148.421 67.4888 139.551 68.5188 136.421C68.7388 144.411 79.6188 145.111 84.9088 141.221C88.9788 142.691 92.9788 143.051 96.8288 140.991C97.1188 147.551 105.709 145.801 110.219 145.291C112.889 145.261 114.159 143.391 114.689 140.971C126.029 144.041 138.459 137.301 135.689 124.361C144.249 121.071 150.179 110.551 144.159 102.351V102.361ZM66.3988 136.391C65.9588 138.991 66.3688 141.951 64.8688 144.241C54.6888 143.481 53.7388 139.681 53.6288 130.301C56.0888 130.691 58.5588 130.411 61.0088 131.071C62.2688 133.151 63.9088 135.161 66.5988 134.911C66.6788 135.461 66.4488 135.921 66.4088 136.401L66.3988 136.391ZM59.6688 128.791C59.9288 128.581 60.0688 128.851 59.7988 129.101C59.7288 128.951 59.6788 128.871 59.6688 128.791ZM112.749 140.621C112.579 141.381 112.339 142.121 111.989 142.831C108.279 144.061 104.039 144.251 100.209 143.421C97.7688 142.221 99.0888 138.111 98.9088 135.861C101.779 136.401 103.589 134.051 104.919 131.881C108.859 134.731 110.529 133.261 113.389 130.401C113.479 133.841 113.489 137.251 112.759 140.621H112.749ZM122.999 81.4715C122.139 85.8915 116.959 86.9015 113.279 85.4615C108.149 83.0315 110.199 76.2815 109.649 71.7215H108.129C107.249 85.8315 106.199 104.061 93.2188 113.111C63.3588 127.611 40.9588 95.4215 56.3388 68.8115C53.3788 67.9715 53.3988 73.9515 51.8888 75.7415C50.2788 79.0215 45.4288 79.1915 42.2188 78.5215C38.3688 77.2715 38.8088 72.1415 39.2088 68.8815C40.7488 62.5815 47.5488 58.9515 53.0088 56.5615C55.2488 63.7415 62.1388 67.3315 69.4088 65.9515C73.6788 74.4615 86.1888 75.8115 91.8788 68.0715C98.9888 70.4615 105.879 67.2515 110.549 61.8315C119.159 65.0915 124.999 71.8315 122.979 81.4615L122.999 81.4715Z" fill="#010101"/>
<path d="M85.0888 101.141C86.1788 100.701 88.9288 99.5015 87.2288 98.2115C78.5388 103.821 69.1188 103.391 61.3888 96.7415C62.3288 100.411 67.3788 102.261 70.6088 103.771C71.0788 106.191 71.3288 108.631 72.2388 110.971H73.0988C74.5788 102.291 78.4888 104.251 85.0988 101.141H85.0888Z" fill="#010101"/>
<path d="M87.7088 76.7715C93.5388 78.8315 86.0888 85.3415 84.9088 79.4115C84.7688 79.3915 84.6288 79.3715 84.4888 79.3415C81.7088 84.2715 89.0788 88.5615 92.0488 85.2115C96.1188 82.0215 92.4088 75.2615 87.6988 76.7615L87.7088 76.7715Z" fill="#010101"/>
<path d="M64.6488 83.6115C72.9788 87.0715 74.5288 72.8015 65.7688 74.4815C65.8288 74.5215 65.8488 74.5815 65.8088 74.6515C71.6988 76.5115 63.9388 83.2115 62.9488 77.0515L62.5388 77.0215C61.3388 79.3215 62.2688 82.5415 64.6488 83.6115Z" fill="#010101"/>
<path d="M89.1488 106.891C86.6388 109.431 83.3788 111.291 79.6888 110.981C77.5588 117.891 94.2988 106.641 89.1488 106.891Z" fill="#010101"/>
<path d="M84.9188 79.4115C84.7788 79.3915 84.6388 79.3715 84.4988 79.3415C84.4888 79.0415 84.6288 78.8315 84.9288 78.6315C85.0288 78.9115 85.0088 79.1615 84.9188 79.4115Z" fill="#535353"/>
<path d="M62.9388 77.0515C62.7988 77.0515 62.6688 77.0315 62.5288 77.0215C62.6388 76.8315 62.7488 76.6415 62.8588 76.4415L62.9788 76.4815C62.9688 76.6715 62.9488 76.8615 62.9388 77.0415V77.0515Z" fill="#3A3A3A"/>
<path d="M65.7688 74.4815C65.8288 74.5215 65.8488 74.5815 65.8088 74.6515H65.4488V74.5315C65.5488 74.5215 65.6588 74.5015 65.7688 74.4915V74.4815Z" fill="#A3A3A3"/>
<path d="M11.9888 52.6615C9.82884 53.8515 7.82884 53.4615 5.82884 52.4215C0.658836 28.0815 24.9388 5.43147 48.8488 9.85147C49.8788 11.9815 49.8288 14.0815 48.7688 16.2515C27.7888 12.9715 8.36884 31.4215 11.9888 52.6615Z" fill="#010101"/>
<path d="M25.1788 52.9415C11.4488 58.2115 21.1188 30.5915 27.7988 27.6315C32.5788 23.3215 53.7188 17.5515 48.8688 29.3415C34.8888 26.5115 21.6388 38.6815 25.1688 52.9415H25.1788Z" fill="#010101"/>
<path d="M48.9888 35.1615C49.9088 37.1315 50.2088 39.1015 49.3288 41.2115C41.7488 39.5615 36.0888 46.0015 36.9688 53.3415C23.3988 58.2215 32.7188 30.5215 48.9888 35.1715V35.1615Z" fill="#010101"/>
<path d="M57.3988 12.6915V5.39147C141.699 -24.5085 210.789 76.6415 152.289 144.301C90.3488 213.361 -21.7612 151.731 3.69884 62.5515H10.7088C-13.9312 144.971 87.9088 203.581 146.459 140.311C201.989 77.2315 135.719 -17.2885 57.3988 12.6915Z" fill="#010101"/>
<path d="M17.8388 62.8715C10.5488 83.6315 13.2388 108.001 25.1288 126.221C25.9788 127.591 26.8188 129.041 27.8988 130.261C28.3888 131.551 29.7788 132.391 30.3888 133.671C67.3988 179.171 143.129 162.891 157.669 105.741C173.669 47.3115 112.639 -4.59853 57.4088 19.9915V17.6115C82.2888 6.90147 112.939 10.9115 133.689 28.0015C163.259 50.2215 171.529 95.9915 150.819 126.871C150.369 128.261 149.099 129.191 148.569 130.441C148.179 130.681 148.169 131.241 147.729 131.441C95.8888 200.081 -10.7912 144.911 15.6688 62.5715L17.7188 62.5715C17.7588 62.6715 17.7988 62.7715 17.8388 62.8715Z" fill="#010101"/>
</svg>
