<svg width="522" height="155" viewBox="0 0 522 155" fill="none" xmlns="http://www.w3.org/2000/svg">
<path d="M148.222 36.4914C148.112 46.1914 148.372 55.9114 148.002 65.6114C147.792 65.7914 147.592 65.9714 147.382 66.1514C141.332 66.1514 135.282 66.1514 129.232 66.1514C129.002 65.9714 128.782 65.7914 128.552 65.6114C128.192 44.6214 128.312 23.5414 128.502 2.55143C134.762 1.67143 141.352 2.50143 148.042 2.22143C152.612 7.83143 156.792 13.9714 161.692 19.8214C166.932 14.4414 170.992 8.17143 175.612 2.29143H195.112C195.792 23.3714 195.332 44.6614 195.282 65.7714C189.262 66.8814 182.322 65.8214 176.062 66.1814C174.382 56.8014 176.142 46.3314 175.382 36.5914C155.552 56.7714 168.132 58.8714 148.282 35.7214C148.262 35.9714 148.242 36.2314 148.222 36.4814V36.4914Z" fill="#010101"/>
<path d="M520.022 66.1914C513.712 66.3514 507.252 66.2214 500.652 66.2714C493.782 57.0314 487.392 47.3714 480.812 37.9214C479.962 38.0714 480.182 38.7114 480.182 39.1814C480.162 48.1014 480.172 56.9414 480.172 65.8714C473.802 66.6714 466.972 66.3114 460.532 66.0414C460.162 63.4614 460.022 7.81143 460.382 2.71143C466.702 1.66143 473.482 2.62143 480.052 2.31143C486.712 11.3714 492.872 21.0414 499.722 29.9314C500.842 29.5614 500.472 28.7914 500.472 28.2314C500.502 19.5914 500.492 11.1114 500.492 2.45143C507.092 1.78143 513.412 2.38143 520.002 2.19143C520.902 23.2414 520.892 45.1514 520.012 66.1914H520.022Z" fill="#010101"/>
<path d="M173.242 114.811C169.002 119.891 165.322 125.021 161.372 130.451C155.892 125.471 152.832 119.271 147.892 113.681C147.212 123.481 147.862 133.181 147.642 142.991C145.112 143.541 131.022 143.561 128.362 143.041V81.6914C134.112 80.0914 141.452 81.5814 147.592 81.0914C152.042 86.8814 156.372 92.5114 160.792 98.2614C176.562 81.2414 167.202 79.6414 193.412 81.3714C193.832 84.2514 193.822 140.491 193.412 143.091C190.922 143.501 177.812 143.531 174.762 143.131C173.262 141.501 175.982 108.841 173.252 114.801L173.242 114.811Z" fill="#010101"/>
<path d="M385.442 144.901V152.091C380.042 152.891 375.152 152.241 369.742 152.431C368.942 149.901 369.712 147.391 369.172 144.831C335.362 136.711 335.932 86.7414 369.992 79.4814C413.202 71.5014 427.632 132.291 385.442 144.901ZM369.452 116.261C374.912 116.041 379.982 115.761 385.422 116.381C385.722 118.801 384.752 121.051 385.912 123.221C401.032 111.921 382.322 89.4214 368.232 101.461C361.592 106.631 361.342 118.861 369.272 123.431C369.332 120.861 369.392 118.651 369.452 116.261Z" fill="#010101"/>
<path d="M303.612 124.611C308.352 130.861 312.922 136.881 317.462 142.871C313.522 147.581 307.702 150.171 303.122 154.271C302.392 154.861 301.712 154.731 301.202 154.031C296.892 147.851 292.202 141.961 287.652 135.971C283.802 132.531 276.392 135.241 271.352 134.511C270.972 137.451 271.372 140.241 271.062 143.181C264.882 143.741 258.352 143.281 252.312 143.411C250.782 123.341 251.892 101.751 251.852 81.2414C264.772 81.5214 278.202 79.7714 290.902 82.1814C308.732 87.4614 315.312 110.371 303.612 124.611ZM271.382 114.961C277.692 114.371 286.082 117.321 289.262 110.281C293.182 99.4514 278.642 99.2714 271.532 100.381C271.102 102.801 271.012 110.081 271.382 114.961Z" fill="#010101"/>
<path d="M59.7119 81.8314C60.0819 102.201 59.7319 122.611 59.8519 142.981C57.2019 143.551 49.7319 143.671 40.3219 143.321C33.7919 133.991 27.4419 124.761 20.7019 115.471C19.8119 124.701 20.8719 133.861 20.2619 143.111C17.4619 143.491 4.36187 143.521 1.23187 143.171C0.261866 126.171 0.961866 84.7114 1.32187 81.4514C3.84187 81.0614 15.9319 80.9314 20.5119 81.2614C27.0519 90.3814 33.3819 99.8414 40.1319 108.931C40.7919 99.9314 40.1819 90.6014 40.4119 81.5314C42.8819 80.9914 53.8519 80.8414 59.1519 81.2414C59.3419 81.4414 59.5319 81.6314 59.7119 81.8314Z" fill="#010101"/>
<path d="M386.792 35.1814C387.782 -13.7786 459.242 -9.67857 455.292 38.7014C449.362 80.5614 387.722 77.1714 386.792 35.1814ZM435.512 33.7714C434.052 14.3414 403.712 16.7014 406.952 36.9614C409.712 54.4714 436.102 51.2114 435.512 33.7714Z" fill="#010101"/>
<path d="M267.772 34.4714C267.522 70.0314 219.042 82.0114 202.582 50.1014C183.232 8.52142 242.952 -21.3686 263.822 19.4014C267.212 23.6814 267.302 29.2914 267.772 34.4714ZM233.322 19.8914C212.082 20.6914 215.862 53.2214 236.892 48.3214C253.282 43.5014 249.712 21.2814 233.322 19.8914Z" fill="#010101"/>
<path d="M307.592 2.76143C309.972 2.27143 323.502 2.17143 327.292 2.60143C328.002 15.4314 327.372 28.4214 327.552 41.3114C328.492 61.6114 303.782 75.6014 287.042 65.6914C277.922 61.2214 272.462 51.7214 272.472 41.5414C272.662 28.6014 272.252 15.6414 272.612 2.71143C275.042 2.26143 289.112 2.21143 292.062 2.62143C293.012 14.5014 292.082 26.7914 292.402 38.8114C292.082 42.9214 293.342 47.2314 297.702 48.4214C303.512 50.4414 308.572 44.5914 307.582 38.9814C307.582 26.9114 307.582 14.8214 307.582 2.75143L307.592 2.76143Z" fill="#010101"/>
<path d="M65.7619 41.9214V47.9614C74.4219 48.4714 83.0119 47.9914 91.7119 48.1514C92.5919 54.1014 91.9419 59.9714 91.9919 65.9414C76.8219 66.8114 61.4319 65.9714 45.9719 66.2614C45.2219 45.2714 45.8119 24.1514 45.7319 3.12143C45.8319 2.73143 46.0819 2.24143 46.5319 2.27143C61.5819 2.42143 76.6819 1.89143 91.7019 2.40143C92.4019 8.12143 91.8319 13.7214 91.9619 19.5414C83.2019 20.1714 74.6119 19.4514 65.8419 19.8914C65.5619 21.8714 65.5719 23.6614 65.8219 25.5714C74.2319 26.2014 82.6419 25.6214 91.0319 25.8114C91.6719 28.0514 91.8019 35.3114 91.3419 41.5814C82.8119 42.2714 74.3419 41.5014 65.7519 41.9514L65.7619 41.9214Z" fill="#010101"/>
<path d="M120.782 81.8314C120.612 96.7314 122.122 111.981 119.992 126.731C116.262 139.781 101.782 148.331 88.5419 145.371C58.9219 139.161 68.6519 103.641 67.2519 81.5914C69.7419 81.0314 79.2219 80.8914 85.7619 81.2714L86.5119 81.7914C87.0619 93.5214 86.5819 105.301 86.7419 117.051C85.4219 123.901 93.5119 129.151 98.3119 124.891C104.812 120.551 100.042 90.9214 101.592 81.5214C104.182 81.0614 114.562 80.9414 120.142 81.2714C120.362 81.4614 120.572 81.6414 120.792 81.8314H120.782Z" fill="#010101"/>
<path d="M434.162 81.8314C434.562 93.3814 434.212 104.961 434.322 116.521C433.052 123.031 439.632 129.331 445.672 125.131C448.702 122.661 449.132 121.751 449.132 117.621C449.132 105.701 449.132 93.7114 449.132 81.8014C454.802 80.3114 461.792 81.7614 467.902 81.2914C468.092 81.4714 468.282 81.6514 468.472 81.8314C467.462 105.461 476.982 140.631 444.662 145.771C406.552 147.461 415.732 106.851 414.942 81.5414C417.532 81.0514 427.632 80.9214 433.512 81.2714C433.732 81.4614 433.942 81.6414 434.162 81.8314Z" fill="#010101"/>
<path d="M496.452 103.781C504.392 103.991 512.362 103.781 520.302 103.991C520.742 106.661 520.792 115.861 520.392 119.471C512.212 119.751 504.072 119.471 495.842 119.571C495.172 121.651 495.642 123.541 495.482 125.461C504.022 126.291 512.312 125.521 520.832 125.791C521.272 128.481 521.342 139.751 520.962 143.031C506.332 143.771 491.022 143.451 476.232 143.181C475.812 122.781 475.832 102.181 476.222 81.7814C476.472 81.5914 476.732 81.4114 476.982 81.2214C491.452 81.0014 505.992 80.9314 520.452 81.2514C520.632 81.4414 520.812 81.6314 520.992 81.8214C520.992 87.0114 520.992 92.2014 520.992 97.3914C520.812 97.5714 520.632 97.7614 520.462 97.9414C512.202 98.2914 504.062 98.0114 495.772 98.0914C495.562 99.5914 494.782 103.621 496.452 103.771V103.781Z" fill="#010101"/>
<path d="M244.622 81.8314C244.622 87.0214 244.622 92.2114 244.622 97.4014C244.432 97.5914 244.252 97.7714 244.062 97.9614C236.002 98.2814 227.822 98.0314 219.772 98.1014C218.812 98.6014 218.872 104.421 220.052 103.781C228.002 104.001 235.992 103.781 243.942 103.991C244.412 106.571 244.472 115.761 244.062 119.421C235.812 119.781 227.772 119.481 219.412 119.591C219.042 121.681 219.072 123.551 219.372 125.561C227.842 126.121 235.982 125.611 244.522 125.771C245.182 131.471 244.812 137.331 244.702 143.071C241.992 143.471 204.982 143.581 200.002 143.211C199.262 122.911 199.672 102.221 199.872 81.8114C200.112 81.6114 200.352 81.4114 200.592 81.2114C215.062 80.9814 229.592 80.9414 244.062 81.2314C244.252 81.4314 244.442 81.6214 244.622 81.8214V81.8314Z" fill="#010101"/>
<path d="M348.522 22.1614C343.292 22.0614 338.002 22.1114 332.792 21.8714C332.342 19.3114 332.242 6.69143 332.612 2.50143C349.992 1.80143 367.672 2.23143 385.102 2.33143C386.262 8.28143 385.512 15.4514 385.472 21.7714C379.952 22.3714 374.772 21.8014 369.162 22.0614C368.942 36.5514 369.162 51.1114 369.072 65.5514C363.462 67.3014 355.892 65.7114 349.702 66.2714C348.212 53.2714 349.652 39.6114 349.162 26.3714C348.832 25.2014 349.762 22.4614 348.522 22.1714V22.1614Z" fill="#010101"/>
<path d="M39.8919 46.2714C40.3519 49.2614 40.3619 62.9514 39.9719 65.9114C27.1019 66.4814 13.2019 66.5314 0.301866 65.9614C-0.0581336 63.4014 -0.118134 5.68143 0.241866 2.56143C2.50187 2.09143 14.4819 1.98143 19.2619 2.39143C20.9119 16.5014 19.1419 31.5814 19.9219 46.0514C26.7619 46.5914 33.0019 46.1414 39.8819 46.2714H39.8919Z" fill="#010101"/>
<path d="M319.522 81.2014H338.492C339.602 101.311 338.882 122.621 338.782 143.051C336.462 143.501 325.442 143.631 319.992 143.271C318.662 122.891 319.972 101.851 319.522 81.2114V81.2014Z" fill="#010101"/>
</svg>
